<svg width="265" height="68" viewBox="0 0 265 68" fill="none" xmlns="http://www.w3.org/2000/svg">
<path d="M35.64 18.176L27.288 26.528H21.336V59.648H33.144V68H20.184L11.832 59.648V26.528H0.0239999L8.376 18.176H11.832V11.168L21.336 1.664V18.176H35.64ZM75.8783 34.784L66.3743 44.288V26.528H52.2623V68H42.7583V18.176H52.2623V25.376L59.1743 18.176H67.6223L75.8783 26.528V34.784ZM119.164 68H109.66V60.896L102.556 68H93.0518L84.7958 59.648V43.136L93.0518 34.784H108.7L100.828 43.04H94.2038V59.648H109.66V26.528H83.5478L90.6518 18.176H110.908L119.164 26.528V68ZM166.204 26.528L156.7 36.128V26.528H143.74V59.648H165.052V68H142.492L134.236 59.648V26.528L142.492 18.176H157.852L166.204 26.528ZM187.316 68H176.66V57.344H187.316V68ZM214.637 10.016H205.133V0.511999H214.637V10.016ZM214.637 68H205.133V25.472L214.637 15.872V68ZM264.508 59.648L256.252 68H238.492L230.236 59.648V26.528L238.492 18.176H256.252L264.508 26.528V59.648ZM255.1 59.648V26.528H239.74V59.648H255.1Z" fill="black"/>
</svg>
